<!DOCTYPE svg PUBLIC "-//W3C//DTD SVG 20010904//EN" "http://www.w3.org/TR/2001/REC-SVG-20010904/DTD/svg10.dtd">
<svg version="1.0" xmlns="http://www.w3.org/2000/svg" width="400px" height="400px" viewBox="0 0 4000 4000" preserveAspectRatio="xMidYMid meet">
<g id="layer1" fill="#000000" stroke="none">
 <path d="M0 2000 l0 -2000 2000 0 2000 0 0 2000 0 2000 -2000 0 -2000 0 0 -2000z m3770 0 l0 -1770 -1770 0 -1770 0 0 1770 0 1770 1770 0 1770 0 0 -1770z"/>
 <path d="M1027 3143 c-13 -12 -8 -1101 4 -1109 7 -4 64 45 140 123 l129 130 0 419 c0 313 -3 423 -12 432 -13 13 -249 18 -261 5z"/>
 <path d="M1857 3144 c-4 -4 -7 -187 -7 -407 l0 -400 131 -132 131 -133 211 -4 c363 -9 507 -65 583 -231 27 -58 29 -70 29 -192 0 -124 -1 -133 -29 -188 -38 -74 -80 -117 -147 -150 -106 -52 -157 -60 -401 -64 l-228 -5 0 336 c0 264 -3 336 -13 336 -7 0 -70 -57 -140 -128 l-127 -127 0 -321 c0 -235 3 -323 12 -332 15 -15 535 -16 708 -2 347 29 548 162 636 420 29 85 27 329 -3 425 -49 154 -162 286 -311 363 -144 75 -304 105 -577 106 l-180 1 -5 415 -5 415 -131 3 c-71 1 -133 -1 -137 -4z"/>
 <path d="M1415 2170 l-170 -170 170 -170 c93 -93 174 -170 180 -170 6 0 87 77 180 170 l170 170 -170 170 c-93 94 -174 170 -180 170 -6 0 -87 -76 -180 -170z"/>
 <path d="M1020 1487 c0 -355 3 -476 12 -485 15 -15 221 -16 249 -2 18 10 19 25 19 358 l0 347 -128 128 c-70 70 -133 127 -140 127 -9 0 -12 -104 -12 -473z"/>
 </g>
<g id="layer2" fill="#ffffff" stroke="none">
 <path d="M215 3778 c-3 -7 -4 -812 -3 -1788 l3 -1775 1785 0 1785 0 0 1785 0 1785 -1783 3 c-1421 2 -1784 0 -1787 -10z m1065 -1070 l0 -421 -120 -121 -120 -121 0 543 0 542 120 0 120 0 0 -422z m832 10 l3 -413 195 -6 c297 -10 441 -37 582 -111 143 -74 244 -193 291 -343 30 -96 32 -340 3 -425 -51 -152 -141 -256 -271 -316 -166 -76 -303 -94 -752 -94 l-293 0 0 323 0 322 120 120 120 119 2 -334 3 -335 230 0 c189 0 242 3 295 18 145 40 229 103 285 213 29 57 30 64 30 189 0 122 -2 134 -29 192 -35 76 -110 151 -187 186 -101 46 -188 59 -416 65 l-211 4 -121 123 -121 122 0 396 0 397 120 0 120 0 2 -412z m-352 -883 l-165 -165 -165 165 -165 165 165 165 165 165 165 -165 165 -165 -165 -165z m-482 -475 l-3 -345 -117 -3 -118 -3 0 468 0 468 120 -120 120 -120 -2 -345z"/>
 </g>

</svg>